<svg width="46" height="40" viewBox="0 0 46 40" fill="none" xmlns="http://www.w3.org/2000/svg">
<path d="M39.8 38C40.9139 38 41.9822 37.5538 42.7698 36.7595C43.5575 35.9652 44 34.888 44 33.7647V12.5882C44 11.465 43.5575 10.3877 42.7698 9.59343C41.9822 8.79916 40.9139 8.35294 39.8 8.35294H23.21C22.5076 8.35989 21.8146 8.18906 21.1946 7.8561C20.5746 7.52314 20.0473 7.03868 19.661 6.44706L17.96 3.90588C17.5776 3.32029 17.0569 2.8396 16.4448 2.50696C15.8327 2.17431 15.1483 2.00012 14.453 2H6.2C5.08609 2 4.0178 2.44622 3.23015 3.24049C2.4425 4.03476 2 5.11202 2 6.23529V33.7647C2 34.888 2.4425 35.9652 3.23015 36.7595C4.0178 37.5538 5.08609 38 6.2 38H39.8Z" stroke="white" stroke-width="3" stroke-linecap="round" stroke-linejoin="round"/>
</svg>
